<?xml version="1.0" standalone="no"?>
<!DOCTYPE svg PUBLIC "-//W3C//DTD SVG 20010904//EN"
 "http://www.w3.org/TR/2001/REC-SVG-20010904/DTD/svg10.dtd">
<svg version="1.0" xmlns="http://www.w3.org/2000/svg"
 width="83.000000pt" height="83.000000pt" viewBox="0 0 83.000000 83.000000"
 preserveAspectRatio="xMidYMid meet">
<metadata>
Created by potrace 1.11, written by Peter Selinger 2001-2013
</metadata>
<g transform="translate(0.000000,83.000000) scale(0.100000,-0.100000)"
fill="#000000" stroke="none">
<path d="M60 477 l0 -357 40 0 c33 0 40 3 40 20 0 13 -7 20 -20 20 -20 0 -20
7 -20 282 l0 282 40 -39 40 -39 0 -323 0 -323 297 0 298 0 -80 80 -80 80 -177
0 c-171 0 -178 -1 -178 -20 0 -19 7 -20 163 -20 l163 0 39 -40 39 -40 -219 2
-220 3 -3 315 -2 316 -80 79 -80 80 0 -358z"/>
</g>
</svg>
